<svg width="21" height="21" viewBox="0 0 21 21" fill="none" xmlns="http://www.w3.org/2000/svg">
<g id="SVG">
<path id="Vector" fill-rule="evenodd" clip-rule="evenodd" d="M10.5272 0.619558C10.7788 0.458012 11.1021 0.460349 11.3512 0.625515L20.2096 6.49659C20.3361 6.58052 20.4292 6.6961 20.4852 6.82592C20.5491 6.93673 20.5858 7.06532 20.5858 7.20245V19.746C20.5858 20.1625 20.2482 20.5001 19.8317 20.5001H13.5265C13.5127 20.5001 13.4991 20.4997 13.4855 20.4989C13.4719 20.4997 13.4582 20.5001 13.4446 20.5001C13.0281 20.5001 12.6905 20.1624 12.6905 19.746V14.3702C12.6905 13.8549 12.4877 13.3622 12.1292 13.0001C11.7709 12.6382 11.2866 12.4363 10.7831 12.4363C10.2797 12.4363 9.79539 12.6382 9.43714 13.0001C9.07859 13.3622 8.87584 13.8549 8.87584 14.3702V19.746C8.87584 20.1624 8.53824 20.5001 8.1218 20.5001C8.10589 20.5001 8.09008 20.4996 8.0744 20.4986C8.05871 20.4996 8.04289 20.5001 8.02695 20.5001H1.73451C1.31806 20.5001 0.980469 20.1625 0.980469 19.746V7.20245C0.980469 7.0829 1.00829 6.96984 1.05782 6.8694C1.1138 6.72716 1.21341 6.60057 1.35186 6.51166L10.5272 0.619558Z" fill="#28BD11"/>
</g>
</svg>
