<svg width="21" height="21" viewBox="0 0 21 21" fill="none" xmlns="http://www.w3.org/2000/svg">
<path d="M0 7V1H2V3.35C2.85 2.28333 3.8875 1.45833 5.1125 0.875C6.3375 0.291667 7.63333 0 9 0C11.5 0 13.625 0.875 15.375 2.625C17.125 4.375 18 6.5 18 9H16C16 7.05 15.3208 5.39583 13.9625 4.0375C12.6042 2.67917 10.95 2 9 2C7.85 2 6.775 2.26667 5.775 2.8C4.775 3.33333 3.93333 4.06667 3.25 5H6V7H0ZM0.05 10H2.1C2.3 11.55 2.9375 12.8625 4.0125 13.9375C5.0875 15.0125 6.375 15.6667 7.875 15.9L9.075 18C6.775 18 4.75833 17.2375 3.025 15.7125C1.29167 14.1875 0.3 12.2833 0.05 10ZM10.35 11.75L8 9.4V4H10V8.6L11.4 10L10.35 11.75ZM14.975 21L14.675 19.5C14.475 19.4167 14.2875 19.3292 14.1125 19.2375C13.9375 19.1458 13.7583 19.0333 13.575 18.9L12.125 19.35L11.125 17.65L12.275 16.65C12.2417 16.4333 12.225 16.2167 12.225 16C12.225 15.7833 12.2417 15.5667 12.275 15.35L11.125 14.35L12.125 12.65L13.575 13.1C13.7583 12.9667 13.9375 12.8542 14.1125 12.7625C14.2875 12.6708 14.475 12.5833 14.675 12.5L14.975 11H16.975L17.275 12.5C17.475 12.5833 17.6667 12.6792 17.85 12.7875C18.0333 12.8958 18.2083 13.0167 18.375 13.15L19.825 12.65L20.825 14.4L19.675 15.4C19.7083 15.6167 19.725 15.825 19.725 16.025C19.725 16.225 19.7083 16.4333 19.675 16.65L20.825 17.65L19.825 19.35L18.375 18.9C18.1917 19.0333 18.0125 19.1458 17.8375 19.2375C17.6625 19.3292 17.475 19.4167 17.275 19.5L16.975 21H14.975ZM15.975 18C16.525 18 16.9958 17.8042 17.3875 17.4125C17.7792 17.0208 17.975 16.55 17.975 16C17.975 15.45 17.7792 14.9792 17.3875 14.5875C16.9958 14.1958 16.525 14 15.975 14C15.425 14 14.9542 14.1958 14.5625 14.5875C14.1708 14.9792 13.975 15.45 13.975 16C13.975 16.55 14.1708 17.0208 14.5625 17.4125C14.9542 17.8042 15.425 18 15.975 18Z" fill="white"/>
</svg>
