<svg width="21" height="20" viewBox="0 0 21 20" fill="none" xmlns="http://www.w3.org/2000/svg">
<path d="M3.85354 2.49985C5.35815 1.1691 7.22991 0.324282 9.2232 0.076249C9.3007 0.613715 9.39819 1.21243 9.52318 1.83614C9.74817 2.96107 10.0607 4.18599 10.4931 5.30717C10.8381 6.20586 11.2718 7.06831 11.8205 7.76327L10.4681 9.11568L3.85354 2.49985ZM2.9686 3.38604C1.6374 4.8905 0.792136 6.76227 0.543749 8.7557C1.08122 8.8332 1.67868 8.93069 2.30239 9.05568C3.42732 9.28067 4.65224 9.59315 5.77342 10.0256C6.67211 10.3706 7.53581 10.8043 8.22952 11.353L9.58443 9.99938L2.9686 3.38604ZM7.33832 12.2455C6.80086 11.8455 6.1109 11.4943 5.32595 11.1918C4.29226 10.7943 3.14234 10.4993 2.0574 10.2819C1.53032 10.1761 1.00059 10.084 0.468754 10.0056C0.466663 12.4398 1.35592 14.7906 2.9686 16.614L7.33832 12.2455ZM3.85104 17.4989L8.22202 13.1292C8.62199 13.6666 8.97197 14.3566 9.27445 15.1416C9.67193 16.174 9.96691 17.3252 10.1844 18.4088C10.2969 18.9688 10.3869 19.5088 10.4594 20C8.02559 20.0018 5.67534 19.1125 3.85229 17.5002M9.11446 12.238L10.4681 10.8843L17.0827 17.4989C15.5783 18.8301 13.7065 19.6754 11.713 19.9238C11.6343 19.3863 11.5356 18.7876 11.4118 18.1639C11.1868 17.0389 10.8743 15.814 10.4431 14.6928C10.0969 13.7954 9.66443 12.9329 9.11446 12.238ZM17.9677 16.6152C19.2989 15.1108 20.1441 13.239 20.3925 11.2455C19.855 11.1681 19.2563 11.0706 18.6326 10.9456C17.5077 10.7206 16.2828 10.4081 15.1616 9.97688C14.2641 9.63065 13.4004 9.19818 12.7055 8.64821L11.3518 9.99938L17.9677 16.6152ZM13.5967 7.75702C14.1341 8.15699 14.8254 8.50697 15.6091 8.80945C16.6427 9.20693 17.7939 9.50191 18.8776 9.71939C19.4376 9.83189 19.9775 9.92188 20.4687 9.99438C20.4708 7.56016 19.5816 5.20941 17.9689 3.38604L13.5967 7.75702ZM17.0827 2.49985C15.2593 0.887167 12.9086 -0.00208699 10.4744 3.67805e-06C10.5469 0.491223 10.6369 1.03119 10.7494 1.59115C10.9668 2.67609 11.2618 3.82601 11.6593 4.85845C11.9618 5.6434 12.3118 6.33336 12.7117 6.87082L17.0827 2.49985Z" fill="#28BD11"/>
</svg>
