<svg width="20" height="21" viewBox="0 0 20 21" fill="none" xmlns="http://www.w3.org/2000/svg">
<path d="M10.0008 19.3281C5.85078 19.3281 2.47461 15.9867 2.47461 11.8801C2.47461 7.77305 5.85078 4.43203 10.0008 4.43203C10.5336 4.43203 10.9672 4.00312 10.9672 3.47578C10.9672 2.94844 10.5336 2.51953 10.0008 2.51953C9.46798 2.51953 9.0344 2.94844 9.0344 3.47578C9.0344 3.68828 8.86015 3.86055 8.64573 3.86055C8.43082 3.86055 8.25703 3.68828 8.25703 3.47578C8.25703 2.52422 9.03907 1.75 10.0008 1.75C10.9625 1.75 11.7446 2.52422 11.7446 3.47578C11.7446 4.42734 10.9625 5.20156 10.0008 5.20156C6.27968 5.20156 3.25234 8.19766 3.25234 11.8801C3.25234 15.5625 6.27968 18.5586 10.0008 18.5586C13.7219 18.5586 16.7492 15.5625 16.7492 11.8801C16.7492 9.04925 14.9375 6.5168 12.2407 5.57812C12.0383 5.50781 11.9317 5.28789 12.0032 5.0875C12.0746 4.88711 12.2961 4.78164 12.4988 4.85234C15.5058 5.89922 17.5266 8.72343 17.5266 11.8805C17.5266 15.9867 14.1504 19.3281 10.0008 19.3281Z" fill="#28BD11"/>
<path d="M2.86289 14.0949C1.62891 14.0949 0.625 13.1015 0.625 11.8804C0.625 10.6593 1.62891 9.66602 2.86289 9.66602V10.4355C2.05781 10.4355 1.40273 11.0839 1.40273 11.8804C1.40273 12.6769 2.05781 13.3253 2.86289 13.3253V14.0949Z" fill="#28BD11"/>
<path d="M17.1367 14.0949V13.3253C17.9421 13.3253 18.5968 12.6773 18.5968 11.8804C18.5968 11.0836 17.9417 10.4355 17.1367 10.4355V9.66602C18.3706 9.66602 19.3746 10.6593 19.3746 11.8804C19.3746 13.1015 18.3706 14.0949 17.1367 14.0949Z" fill="#28BD11"/>
<path d="M9.99902 16.4947C9.26777 16.4947 8.55993 16.2361 7.95214 15.7466C7.78534 15.6127 7.76034 15.3701 7.89589 15.2056C8.03143 15.0408 8.27675 15.0153 8.44277 15.1502C9.37793 15.9025 10.6205 15.9033 11.5553 15.1502C11.7224 15.0158 11.9673 15.0408 12.1021 15.2056C12.2377 15.3701 12.2127 15.6127 12.0458 15.7466C11.4381 16.2361 10.7303 16.4947 9.99902 16.4947Z" fill="#28BD11"/>
<path d="M5.86136 11.1682C5.77112 11.1682 5.68049 11.1369 5.60706 11.0744C5.44456 10.9349 5.42698 10.692 5.56761 10.5314C5.94299 10.1025 6.48713 9.85645 7.06018 9.85645C7.62581 9.85645 8.16526 10.0974 8.5399 10.517C8.68207 10.6764 8.66682 10.9194 8.5059 11.0599C8.34457 11.201 8.09924 11.1858 7.95706 11.026C7.72972 10.7717 7.40276 10.6256 7.06018 10.6256C6.71292 10.6256 6.38284 10.7749 6.15549 11.0349C6.07854 11.1229 5.97034 11.1682 5.86136 11.1682Z" fill="#28BD11"/>
<path d="M11.7462 11.1682C11.6559 11.1682 11.5649 11.1369 11.4915 11.074C11.3294 10.9349 11.3118 10.692 11.4524 10.5314C11.8279 10.1025 12.3719 9.85645 12.945 9.85645C13.5106 9.85645 14.0501 10.0974 14.4247 10.517C14.5673 10.6764 14.552 10.9194 14.3907 11.0599C14.2298 11.201 13.9841 11.1865 13.8419 11.026C13.6145 10.7717 13.2876 10.6256 12.9446 10.6256C12.5978 10.6256 12.2677 10.7749 12.0399 11.0349C11.9629 11.1229 11.8548 11.1682 11.7462 11.1682Z" fill="#28BD11"/>
</svg>
