<svg width="16" height="20" viewBox="0 0 16 20" fill="none" xmlns="http://www.w3.org/2000/svg">
<path d="M4 10V8H12V10H4ZM4 6V4H12V6H4ZM2 12H9.5C9.98333 12 10.4333 12.1042 10.85 12.3125C11.2667 12.5208 11.6167 12.8167 11.9 13.2L14 15.95V2H2V12ZM2 18H13.05L10.325 14.425C10.225 14.2917 10.1042 14.1875 9.9625 14.1125C9.82083 14.0375 9.66667 14 9.5 14H2V18ZM14 20H2C1.45 20 0.979167 19.8042 0.5875 19.4125C0.195833 19.0208 0 18.55 0 18V2C0 1.45 0.195833 0.979167 0.5875 0.5875C0.979167 0.195833 1.45 0 2 0H14C14.55 0 15.0208 0.195833 15.4125 0.5875C15.8042 0.979167 16 1.45 16 2V18C16 18.55 15.8042 19.0208 15.4125 19.4125C15.0208 19.8042 14.55 20 14 20Z" fill="white"/>
</svg>
