<svg width="20" height="21" viewBox="0 0 20 21" fill="none" xmlns="http://www.w3.org/2000/svg">
<path fill-rule="evenodd" clip-rule="evenodd" d="M14.2876 0.646447C14.4829 0.841709 14.4829 1.15829 14.2876 1.35355L12.195 3.44622H18.3297C19.1852 3.44622 19.8787 4.13977 19.8787 4.9953V16.5819C19.8787 17.4374 19.1852 18.131 18.3297 18.131H17.1725L17.9208 19.0664C18.0933 19.282 18.0583 19.5966 17.8427 19.7691C17.6271 19.9416 17.3124 19.9067 17.1399 19.691L15.8919 18.131H3.98707L2.73901 19.691C2.5665 19.9067 2.25186 19.9416 2.03622 19.7691C1.82059 19.5966 1.78563 19.282 1.95814 19.0664L2.70645 18.131H1.54908C0.693545 18.131 0 17.4374 0 16.5819V4.9953C0 4.13977 0.693545 3.44622 1.54908 3.44622H8.48205L6.38938 1.35355C6.19412 1.15829 6.19412 0.841709 6.38938 0.646447C6.58464 0.451184 6.90122 0.451184 7.09648 0.646447L9.89626 3.44622H10.7808L13.5805 0.646447C13.7758 0.451184 14.0924 0.451184 14.2876 0.646447ZM1.54908 4.94622C1.52197 4.94622 1.5 4.96819 1.5 4.9953V16.5819C1.5 16.609 1.52197 16.631 1.54908 16.631H13.4349V4.94622H1.54908ZM18.3297 16.631H14.4349V4.94622H18.3297C18.3568 4.94622 18.3787 4.96819 18.3787 4.9953V16.5819C18.3787 16.609 18.3568 16.631 18.3297 16.631ZM17.2312 8.04174C17.2312 7.68317 16.9406 7.39249 16.582 7.39249C16.2234 7.39249 15.9327 7.68317 15.9327 8.04174C15.9327 8.40031 16.2234 8.69099 16.582 8.69099C16.9406 8.69099 17.2312 8.40031 17.2312 8.04174ZM16.582 10.389C16.9406 10.389 17.2312 10.6796 17.2312 11.0382C17.2312 11.3968 16.9406 11.6875 16.582 11.6875C16.2234 11.6875 15.9327 11.3968 15.9327 11.0382C15.9327 10.6796 16.2234 10.389 16.582 10.389ZM17.2312 14.0349C17.2312 13.6764 16.9406 13.3857 16.582 13.3857C16.2234 13.3857 15.9327 13.6764 15.9327 14.0349C15.9327 14.3935 16.2234 14.6842 16.582 14.6842C16.9406 14.6842 17.2312 14.3935 17.2312 14.0349Z" fill="#28BD11"/>
</svg>
